<svg width="22" height="22" viewBox="0 0 22 22" fill="none" xmlns="http://www.w3.org/2000/svg">
<path d="M2.25024 7.27787C2.50809 7.0201 2.85776 6.87529 3.22236 6.87529C3.58696 6.87529 3.93664 7.0201 4.19449 7.27787L11.0007 14.0841L17.807 7.27787C18.0663 7.0274 18.4136 6.88881 18.7742 6.89194C19.1347 6.89508 19.4796 7.03968 19.7345 7.29462C19.9894 7.54956 20.134 7.89442 20.1372 8.25494C20.1403 8.61546 20.0017 8.96279 19.7512 9.22212L11.9729 17.0005C11.715 17.2583 11.3653 17.4031 11.0007 17.4031C10.6361 17.4031 10.2865 17.2583 10.0286 17.0005L2.25024 9.22212C1.99246 8.96427 1.84766 8.6146 1.84766 8.25C1.84766 7.88539 1.99246 7.53572 2.25024 7.27787Z" fill="#FF6425"/>
</svg>
