<svg width="48" height="41" viewBox="0 0 48 41" fill="none" xmlns="http://www.w3.org/2000/svg">
<g clip-path="url(#clip0_334_71)">
<path d="M32.2 0.73526H1V4.63526H32.2V0.73526Z" fill="white"/>
<path d="M32.2 35.8353H1V39.7353H32.2V35.8353Z" fill="white"/>
<path d="M8.80039 39.7353H4.90039V29.1663L13.8509 20.2353L4.90039 11.2848V2.68527H8.80039V9.66631L19.3499 20.2353L8.80039 30.7848V39.7353Z" fill="white"/>
<path d="M28.2991 39.7353H24.3991V30.7848L13.8496 20.2353L24.3991 9.66631V2.68527H28.2991V11.2848L19.3486 20.2353L28.2991 29.1663V39.7353Z" fill="white"/>
<path d="M41.9512 29.9853H38.0512C36.4997 29.9853 35.0117 29.3689 33.9146 28.2718C32.8175 27.1747 32.2012 25.6868 32.2012 24.1353H36.1012C36.1012 24.6524 36.3066 25.1484 36.6723 25.5141C37.038 25.8798 37.534 26.0853 38.0512 26.0853H41.9512C42.4683 26.0853 42.9643 25.8798 43.33 25.5141C43.6957 25.1484 43.9012 24.6524 43.9012 24.1353C43.9012 23.6181 43.6957 23.1221 43.33 22.7564C42.9643 22.3907 42.4683 22.1853 41.9512 22.1853H38.0512C36.4997 22.1853 35.0117 21.5689 33.9146 20.4718C32.8175 19.3747 32.2012 17.8868 32.2012 16.3353C32.2012 14.7837 32.8175 13.2958 33.9146 12.1987C35.0117 11.1016 36.4997 10.4853 38.0512 10.4853H41.9512C43.5027 10.4853 44.9906 11.1016 46.0877 12.1987C47.1848 13.2958 47.8012 14.7837 47.8012 16.3353H43.9012C43.9012 15.8181 43.6957 15.3221 43.33 14.9564C42.9643 14.5907 42.4683 14.3853 41.9512 14.3853H38.0512C37.534 14.3853 37.038 14.5907 36.6723 14.9564C36.3066 15.3221 36.1012 15.8181 36.1012 16.3353C36.1012 16.8524 36.3066 17.3484 36.6723 17.7141C37.038 18.0798 37.534 18.2853 38.0512 18.2853H41.9512C43.5027 18.2853 44.9906 18.9016 46.0877 19.9987C47.1848 21.0958 47.8012 22.5837 47.8012 24.1353C47.8012 25.6868 47.1848 27.1747 46.0877 28.2718C44.9906 29.3689 43.5027 29.9853 41.9512 29.9853Z" fill="white"/>
<path d="M41.9508 28.0352H38.0508V31.9352H41.9508V28.0352Z" fill="white"/>
<path d="M41.9508 8.53528H38.0508V12.4353H41.9508V8.53528Z" fill="white"/>
</g>
<defs>
<clipPath id="clip0_334_71">
<rect width="48" height="39.5295" fill="white" transform="translate(0 0.73526)"/>
</clipPath>
</defs>
</svg>
