<svg width="24" height="24" viewBox="0 0 24 24" fill="none" xmlns="http://www.w3.org/2000/svg">
<path d="M12 24C9.62662 24 7.30655 23.2962 5.33316 21.9776C3.35977 20.6591 1.82171 18.7849 0.913462 16.5922C0.00521025 14.3995 -0.232444 11.9867 0.230578 9.65892C0.693601 7.33114 1.83646 5.19295 3.51469 3.51472C5.19292 1.83649 7.33114 0.693605 9.65891 0.230583C11.9867 -0.23244 14.3995 0.00519789 16.5922 0.913449C18.7849 1.8217 20.6591 3.35977 21.9776 5.33316C23.2962 7.30655 24 9.62663 24 12C24 15.1826 22.7357 18.2348 20.4853 20.4853C18.2349 22.7357 15.1826 24 12 24ZM12 2.18182C10.0581 2.18182 8.15991 2.75765 6.54532 3.83649C4.93073 4.91532 3.67227 6.44871 2.92915 8.24274C2.18604 10.0368 1.99161 12.0109 2.37045 13.9154C2.74928 15.82 3.68441 17.5694 5.0575 18.9425C6.4306 20.3156 8.18004 21.2507 10.0846 21.6295C11.9891 22.0084 13.9632 21.8139 15.7573 21.0708C17.5513 20.3277 19.0847 19.0693 20.1635 17.4547C21.2423 15.8401 21.8182 13.9419 21.8182 12C21.8182 9.39606 20.7838 6.89877 18.9425 5.0575C17.1012 3.21623 14.6039 2.18182 12 2.18182Z" fill="#FF6425"/>
<path d="M15.5785 17.1271L10.8984 12.4471V4.35254H13.0803V11.5416L17.1276 15.5889L15.5785 17.1271Z" fill="#FF6425"/>
</svg>
