<svg width="48" height="41" viewBox="0 0 48 41" fill="none" xmlns="http://www.w3.org/2000/svg">
<g clip-path="url(#clip0_334_65)">
<path d="M27.75 29.9853V26.7353H24.3375C24.133 25.7185 23.7299 24.7521 23.1513 23.8915L25.5725 21.4703L23.265 19.1628L20.8437 21.584C19.9831 21.0053 19.0167 20.6022 18 20.3978V16.9853H14.75V20.3978C13.7333 20.6022 12.7669 21.0053 11.9062 21.584L9.48502 19.1628L7.17749 21.4703L9.59873 23.8915C9.02006 24.7521 8.61697 25.7185 8.41251 26.7353H5V29.9853H8.41251C8.61697 31.002 9.02006 31.9684 9.59873 32.829L7.17749 35.2503L9.48502 37.5578L11.9062 35.1365C12.7669 35.7152 13.7333 36.1183 14.75 36.3228V39.7353H18V36.3228C19.0167 36.1183 19.9831 35.7152 20.8437 35.1365L23.265 37.5578L25.5725 35.2503L23.1513 32.8453C23.7264 31.9768 24.1291 31.0058 24.3375 29.9853H27.75ZM16.375 33.2353C15.4108 33.2353 14.4683 32.9493 13.6666 32.4137C12.8649 31.878 12.2401 31.1166 11.8711 30.2258C11.5021 29.335 11.4056 28.3548 11.5937 27.4092C11.7818 26.4635 12.2461 25.5949 12.9279 24.9131C13.6097 24.2313 14.4783 23.767 15.4239 23.5789C16.3696 23.3908 17.3498 23.4874 18.2406 23.8563C19.1314 24.2253 19.8928 24.8502 20.4284 25.6519C20.9641 26.4535 21.25 27.3961 21.25 28.3603C21.25 29.6532 20.7364 30.8932 19.8221 31.8074C18.9079 32.7216 17.6679 33.2353 16.375 33.2353Z" fill="#FF6425"/>
<path d="M34.25 16.9853C32.9644 16.9853 31.7077 16.6041 30.6388 15.8898C29.5698 15.1756 28.7367 14.1604 28.2448 12.9727C27.7528 11.785 27.6241 10.478 27.8749 9.21717C28.1257 7.95629 28.7447 6.79811 29.6538 5.88906C30.5628 4.98002 31.721 4.36096 32.9819 4.11016C34.2428 3.85935 35.5497 3.98808 36.7374 4.48005C37.9251 4.97202 38.9403 5.80514 39.6545 6.87405C40.3688 7.94297 40.75 9.19969 40.75 10.4853C40.75 12.2092 40.0652 13.8625 38.8462 15.0815C37.6272 16.3004 35.9739 16.9853 34.25 16.9853ZM34.25 7.23526C33.6072 7.23526 32.9788 7.42587 32.4444 7.78298C31.9099 8.1401 31.4934 8.64768 31.2474 9.24154C31.0014 9.8354 30.937 10.4889 31.0624 11.1193C31.1878 11.7497 31.4974 12.3288 31.9519 12.7834C32.4064 13.2379 32.9855 13.5474 33.616 13.6728C34.2464 13.7982 34.8999 13.7339 35.4937 13.4879C36.0876 13.2419 36.5951 12.8253 36.9523 12.2909C37.3094 11.7564 37.5 11.1281 37.5 10.4853C37.5 9.62331 37.1576 8.79666 36.5481 8.18716C35.9386 7.57767 35.1119 7.23526 34.25 7.23526Z" fill="#FF6425"/>
<path d="M35.8086 0.73526H32.5586V5.61026H35.8086V0.73526Z" fill="#FF6425"/>
<path d="M35.8086 15.3603H32.5586V20.2353H35.8086V15.3603Z" fill="#FF6425"/>
<path d="M43.9336 8.86023H39.0586V12.1102H43.9336V8.86023Z" fill="#FF6425"/>
<path d="M29.3086 8.86023H24.4336V12.1102H29.3086V8.86023Z" fill="#FF6425"/>
<path d="M38.777 12.7955L36.4785 15.0932L39.9251 18.5409L42.2236 16.2432L38.777 12.7955Z" fill="#FF6425"/>
<path d="M28.4446 2.44229L26.1465 4.74039L29.5936 8.18753L31.8917 5.88944L28.4446 2.44229Z" fill="#FF6425"/>
<path d="M39.9257 2.44684L36.4785 5.89398L38.7766 8.19208L42.2238 4.74493L39.9257 2.44684Z" fill="#FF6425"/>
<path d="M29.5721 12.7565L26.125 16.2036L28.4231 18.5017L31.8702 15.0546L29.5721 12.7565Z" fill="#FF6425"/>
</g>
<defs>
<clipPath id="clip0_334_65">
<rect width="48" height="39.5295" fill="white" transform="translate(0 0.73526)"/>
</clipPath>
</defs>
</svg>
