<svg width="24" height="18" viewBox="0 0 24 18" fill="none" xmlns="http://www.w3.org/2000/svg">
<path d="M12.08 11.77C11.2743 11.7717 10.4995 11.4596 9.91992 10.9L0.419922 1.62994L1.80994 0.199951L11.3199 9.46991C11.5246 9.66551 11.7968 9.77472 12.08 9.77472C12.3631 9.77472 12.6353 9.66551 12.84 9.46991L22.27 0.279968L23.6699 1.71991L14.2399 10.9C13.6615 11.4615 12.8861 11.7738 12.08 11.77Z" fill="#FF6425"/>
<path d="M15.6922 7.42897L14.2969 8.86182L22.2993 16.6547L23.6946 15.2219L15.6922 7.42897Z" fill="#FF6425"/>
<path d="M8.36875 7.36844L0.414062 15.2954L1.82581 16.7121L9.78049 8.78512L8.36875 7.36844Z" fill="#FF6425"/>
<path d="M21 18H3C2.20435 18 1.44127 17.6839 0.878662 17.1213C0.316053 16.5587 0 15.7956 0 15V3C0 2.20435 0.316053 1.44127 0.878662 0.878662C1.44127 0.316053 2.20435 0 3 0H21C21.7956 0 22.5587 0.316053 23.1213 0.878662C23.6839 1.44127 24 2.20435 24 3V15C24 15.7956 23.6839 16.5587 23.1213 17.1213C22.5587 17.6839 21.7956 18 21 18ZM3 2C2.73478 2 2.48044 2.10537 2.29291 2.29291C2.10537 2.48044 2 2.73478 2 3V15C2 15.2652 2.10537 15.5196 2.29291 15.7071C2.48044 15.8946 2.73478 16 3 16H21C21.2652 16 21.5196 15.8946 21.7071 15.7071C21.8946 15.5196 22 15.2652 22 15V3C22 2.73478 21.8946 2.48044 21.7071 2.29291C21.5196 2.10537 21.2652 2 21 2H3Z" fill="#FF6425"/>
</svg>
