<svg width="48" height="41" viewBox="0 0 48 41" fill="none" xmlns="http://www.w3.org/2000/svg">
<g clip-path="url(#clip0_334_59)">
<path d="M8.87636 16.9758C10.672 16.9758 12.1277 15.5201 12.1277 13.7244C12.1277 11.9287 10.672 10.4731 8.87636 10.4731C7.08068 10.4731 5.625 11.9287 5.625 13.7244C5.625 15.5201 7.08068 16.9758 8.87636 16.9758Z" fill="#FF6425"/>
<path d="M7.25136 29.9975H4V21.8691C4 21.0067 4.3426 20.1798 4.95235 19.57C5.56209 18.9603 6.38904 18.6177 7.25136 18.6177H12.795L19.7854 25.5918L17.4769 27.884L11.4456 21.8691H7.25136V29.9975Z" fill="#FF6425"/>
<path d="M13.7378 39.7353H10.4864V29.9812H8.86073V39.7353H5.60938V26.7298H13.7378V39.7353Z" fill="#FF6425"/>
<path d="M13.7534 20.2271H5.625V29.9812H13.7534V20.2271Z" fill="#FF6425"/>
<path d="M30.0112 18.6177H20.2572V15.3664C18.8924 14.3428 17.8843 12.9156 17.3756 11.2872C16.8669 9.65883 16.8835 7.91168 17.4229 6.29322C17.9624 4.67476 18.9975 3.26707 20.3815 2.26955C21.7655 1.27203 23.4282 0.73526 25.1342 0.73526C26.8402 0.73526 28.503 1.27203 29.887 2.26955C31.271 3.26707 32.306 4.67476 32.8455 6.29322C33.3849 7.91168 33.4016 9.65883 32.8929 11.2872C32.3842 12.9156 31.376 14.3428 30.0112 15.3664V18.6177ZM23.5085 15.3664H26.7599V13.5293L27.5727 13.0579C28.5025 12.5211 29.2292 11.6925 29.64 10.7006C30.0509 9.70875 30.123 8.60898 29.8451 7.57196C29.5673 6.53494 28.9549 5.61863 28.1032 4.96506C27.2514 4.31149 26.2078 3.9572 25.1342 3.9572C24.0606 3.9572 23.0171 4.31149 22.1653 4.96506C21.3136 5.61863 20.7012 6.53494 20.4234 7.57196C20.1455 8.60898 20.2176 9.70875 20.6285 10.7006C21.0393 11.6925 21.7659 12.5211 22.6957 13.0579L23.5085 13.5293V15.3664Z" fill="#FF6425"/>
<path d="M29.9943 20.2271H20.2402V23.4785H29.9943V20.2271Z" fill="#FF6425"/>
<path d="M38.14 16.9758C39.9357 16.9758 41.3914 15.5201 41.3914 13.7244C41.3914 11.9287 39.9357 10.4731 38.14 10.4731C36.3444 10.4731 34.8887 11.9287 34.8887 13.7244C34.8887 15.5201 36.3444 16.9758 38.14 16.9758Z" fill="#FF6425"/>
<path d="M41.3914 20.2271H34.8887V39.7352H41.3914V20.2271Z" fill="#FF6425"/>
<path d="M43.0158 28.3718H39.7644V21.8691H36.5131V28.3718H33.2617V21.8691C33.2617 21.0067 33.6043 20.1798 34.2141 19.57C34.8238 18.9603 35.6508 18.6177 36.5131 18.6177H39.7644C40.6267 18.6177 41.4538 18.9603 42.0635 19.57C42.6733 20.1798 43.0158 21.0067 43.0158 21.8691V28.3718Z" fill="#FF6425"/>
</g>
<defs>
<clipPath id="clip0_334_59">
<rect width="48" height="39.5295" fill="white" transform="translate(0 0.73526)"/>
</clipPath>
</defs>
</svg>
