<svg width="25" height="25" viewBox="0 0 25 25" fill="none" xmlns="http://www.w3.org/2000/svg">
<g clip-path="url(#clip0_101_2290)">
<path d="M19.6905 11.5974C18.3344 10.911 17.2048 10.3857 16.1143 9.77767C15.8054 9.61076 15.4926 9.24512 15.3954 8.89009C15.2192 8.25515 15.6431 7.85148 16.2506 7.99353C16.738 8.10304 17.2314 8.23302 17.6859 8.43211C19.624 9.27471 21.5688 10.083 23.4613 11.0153C24.6852 11.6146 24.75 12.5322 23.7286 13.5271C23.2211 14.0211 22.6571 14.4679 22.0561 14.8193C20.7263 15.6061 19.3655 16.3318 18.0048 17.0437C17.6534 17.2338 17.2527 17.3013 16.8767 17.4232C16.4881 17.5453 16.1713 17.4951 15.9735 17.0729C15.7818 16.6576 15.749 16.2331 16.0832 15.8992C16.6101 15.3707 17.1808 14.9032 17.874 14.2763C17.3726 14.2767 17.0045 14.2683 16.6299 14.2805C13.0169 14.4217 9.40345 14.5903 5.79698 14.7108C4.40653 14.7514 3.011 14.6892 1.62123 14.675C1.44349 14.6775 1.25966 14.6596 1.08869 14.6278C0.594906 14.5252 0.383641 14.1581 0.377381 13.6373C0.371628 13.0753 0.722547 12.9263 1.15471 12.8789C2.29243 12.746 3.431 12.5445 4.57413 12.487C9.25501 12.2207 13.9416 12.0024 18.6222 11.7636C18.9017 11.7459 19.1817 11.687 19.6968 11.6042L19.6905 11.5974Z" fill="#8468F5"/>
</g>
<defs>
<clipPath id="clip0_101_2290">
<rect width="25" height="25" fill="white"/>
</clipPath>
</defs>
</svg>
