<svg width="18" height="24" viewBox="0 0 18 24" fill="none" xmlns="http://www.w3.org/2000/svg">
<path d="M8.98874 24L8.13376 23.0083C7.30126 22.0501 0 13.5042 0 8.91363C0 6.54959 0.948205 4.28237 2.63603 2.61074C4.32386 0.939105 6.61305 0 9 0C11.3869 0 13.6761 0.939105 15.364 2.61074C17.0518 4.28237 18 6.54959 18 8.91363C18 13.5042 10.6875 22.0501 9.85501 23.0083L8.98874 24ZM8.98874 2.23956C7.19853 2.23956 5.48167 2.94392 4.2158 4.19765C2.94993 5.45137 2.23874 7.15175 2.23874 8.92479C2.23874 11.7437 6.52499 17.571 8.98874 20.5571C11.4412 17.5599 15.7387 11.7437 15.7387 8.92479C15.7387 7.15175 15.0276 5.45137 13.7617 4.19765C12.4958 2.94392 10.779 2.23956 8.98874 2.23956Z" fill="#FF6425"/>
<path d="M8.96679 13.337C8.07677 13.337 7.20673 13.0756 6.46671 12.5859C5.72669 12.0962 5.14992 11.4001 4.80932 10.5857C4.46873 9.77132 4.37964 8.8752 4.55327 8.01066C4.72691 7.14612 5.15547 6.35203 5.7848 5.72873C6.41414 5.10544 7.21596 4.68095 8.08888 4.50898C8.96179 4.33702 9.86659 4.42525 10.6889 4.76258C11.5111 5.0999 12.2139 5.67118 12.7084 6.4041C13.2029 7.13702 13.4668 7.99871 13.4668 8.88018C13.4668 10.0622 12.9927 11.1958 12.1488 12.0316C11.3049 12.8674 10.1603 13.337 8.96679 13.337ZM8.96679 6.65177C8.52178 6.65177 8.08676 6.78244 7.71675 7.0273C7.34674 7.27216 7.05837 7.6202 6.88807 8.02739C6.71778 8.43458 6.6732 8.88267 6.76001 9.31494C6.84683 9.74721 7.06113 10.1442 7.3758 10.4559C7.69046 10.7675 8.09139 10.9798 8.52785 11.0657C8.96431 11.1517 9.41671 11.1076 9.82784 10.9389C10.239 10.7703 10.5904 10.4847 10.8376 10.1182C11.0848 9.75176 11.2168 9.32092 11.2168 8.88018C11.2168 8.28917 10.9797 7.72233 10.5578 7.30442C10.1358 6.88652 9.56353 6.65177 8.96679 6.65177Z" fill="#FF6425"/>
</svg>
