<svg width="24" height="24" viewBox="0 0 24 24" fill="none" xmlns="http://www.w3.org/2000/svg">
<path d="M16 19.002H15C12.3478 19.002 9.80429 17.9484 7.92892 16.073C6.05356 14.1976 5 11.6541 5 9.00195V8.00195H7V9.00195C7 11.1237 7.84285 13.1585 9.34314 14.6588C10.8434 16.1591 12.8783 17.002 15 17.002H16V19.002Z" fill="#FF6425"/>
<path d="M7 10.0021H6V8.00207H7C7 7.81207 7 7.50209 7 7.27209V2.73205C7 2.50205 7 2.19207 7 2.00207H3C2.73478 2.00207 2.48043 2.10744 2.29289 2.29498C2.10536 2.48251 2 2.73685 2 3.00207V7.00207H0V3.00207C0 2.20642 0.316068 1.44334 0.878677 0.880731C1.44129 0.318122 2.20435 0.00206921 3 0.00206921H7C7.26021 -0.00998718 7.52016 0.030734 7.76421 0.12182C8.00825 0.212906 8.23132 0.352502 8.42 0.532099C8.66027 0.842563 8.83548 1.19827 8.93513 1.578C9.03479 1.95772 9.05685 2.35362 9 2.74206V7.26208C9.05685 7.65052 9.03479 8.04642 8.93513 8.42614C8.83548 8.80586 8.66027 9.16158 8.42 9.47204C8.23132 9.65164 8.00825 9.79123 7.76421 9.88232C7.52016 9.9734 7.26021 10.0141 7 10.0021Z" fill="#FF6425"/>
<path d="M21.0007 24.0021H17.0007V22.0021H21.0007C21.2659 22.0021 21.5203 21.8967 21.7078 21.7092C21.8954 21.5217 22.0007 21.2673 22.0007 21.0021V17.0021C21.8107 17.0021 21.4907 17.0021 21.2707 17.0021H16.7207C16.5007 17.0021 16.1907 17.0021 16.0007 17.0021V18.0021H14.0007V17.0021C13.9869 16.7417 14.0268 16.4813 14.118 16.237C14.2092 15.9927 14.3497 15.7698 14.5307 15.5821C14.84 15.3398 15.1957 15.1633 15.5757 15.0636C15.9558 14.9638 16.3523 14.9429 16.7407 15.0021H21.2507C21.6407 14.945 22.0383 14.967 22.4196 15.0666C22.801 15.1663 23.1585 15.3416 23.4707 15.5821C23.6518 15.7698 23.7923 15.9927 23.8834 16.237C23.9746 16.4813 24.0145 16.7417 24.0007 17.0021V21.0021C24.0007 21.7978 23.6847 22.5608 23.122 23.1234C22.5594 23.6861 21.7964 24.0021 21.0007 24.0021Z" fill="#FF6425"/>
<path d="M20 24.002H17C12.4913 24.002 8.1673 22.2109 4.97919 19.0228C1.79107 15.8346 0 11.5106 0 7.00195V4.00195H2V7.00195C2 10.9802 3.58034 14.7955 6.39339 17.6086C9.20643 20.4216 13.0218 22.002 17 22.002H20V24.002Z" fill="#FF6425"/>
</svg>
