<svg width="134" height="29" viewBox="0 0 134 29" fill="none" xmlns="http://www.w3.org/2000/svg">
<path d="M53.9805 27.8723H57.5671C59.1629 27.8723 60.4111 27.1635 61.3749 25.7144L62.5599 23.2573C58.8943 25.0372 55.9397 24.9426 55.4025 24.9111L53.9963 27.8723H53.9805Z" fill="white" stroke="white" stroke-width="0.2" stroke-miterlimit="10" stroke-linecap="round"/>
<path d="M70.5873 12.7046C70.6979 12.7046 70.8401 12.7046 71.0139 12.7046C71.3457 12.7046 71.7565 12.7204 71.8671 12.7204C72.4675 12.7204 72.5939 12.6731 73.0521 12.5471L73.3207 12.4683C74.1107 12.2636 74.9007 11.9486 75.6591 11.6493L76.0383 11.5076L72.7993 0.891602H65.8315L62.3555 9.61747L67.4905 11.35L69.1653 5.99482L70.5873 12.6889V12.7046Z" fill="white" stroke="white" stroke-width="0.2" stroke-miterlimit="10"/>
<path d="M72.4824 19.5089L74.5048 25.7777C74.9314 27.1638 75.9426 27.8568 77.5226 27.8568H81.3146L78.1072 17.8394L72.4824 19.4932V19.5089Z" fill="white" stroke="white" stroke-width="0.2" stroke-miterlimit="10"/>
<path d="M77.4119 12.4683L76.0689 12.9566C73.9833 13.6654 71.6449 14.4687 69.3381 13.9332C69.1485 13.8859 68.7693 13.7599 68.4533 13.6496C68.3111 13.6024 68.2005 13.5709 68.1215 13.5394L62.3545 11.1768C62.3071 11.1453 58.6415 9.0347 55.5605 11.9958L63.7133 16.8628L63.5395 16.9573C63.5079 16.973 59.5579 19.2096 54.9601 20.0917H54.8969L51.3419 17.0518L48.8613 17.4928L52.1635 23.4938C52.1793 23.4938 52.2109 23.4938 52.2267 23.4938C53.1905 23.5883 55.7027 23.7301 58.5309 23.0213L82.2783 14.7522C82.4521 14.6892 82.5785 14.5632 82.6259 14.3899C82.6733 14.2167 82.6259 14.0277 82.5153 13.8859C81.6463 12.8621 80.1611 11.6021 77.4119 12.4526V12.4683Z" fill="white"/>
<path d="M55.1816 27.8723H60.601L62.6866 23.2573L55.1816 27.8723Z" fill="white" stroke="white" stroke-width="0.2" stroke-miterlimit="10"/>
<path d="M81.3146 27.8724H75.1526L72.4824 19.5088" fill="white"/>
<path d="M81.3146 27.8724H75.1526L72.4824 19.5088" stroke="white" stroke-width="0.2" stroke-miterlimit="10"/>
<path d="M0.67205 28.1088V0.891602H6.59705V13.2716L18.2101 0.891602H25.5254L15.0975 11.9643L25.7309 28.1088H18.6525L11.0053 16.0437L6.58125 20.0129V28.1088H0.65625H0.67205Z" fill="white"/>
<path d="M29.5392 28.1088V0.891602H35.4642V23.0685H49.226V28.1088H29.5234H29.5392Z" fill="white"/>
<path d="M99.8496 28.1088V0.891602H105.775V28.1088H99.8496Z" fill="white"/>
<path d="M118.556 28.1088V5.85306H109.803V0.891602H133.329V5.85306H124.528V28.1088H118.556Z" fill="white"/>
</svg>
