<svg width="158" height="47" viewBox="0 0 158 47" fill="none" xmlns="http://www.w3.org/2000/svg">
<path d="M65.9805 36.8723H69.5671C71.1629 36.8723 72.4111 36.1635 73.3749 34.7144L74.5599 32.2573C70.8943 34.0372 67.9397 33.9426 67.4025 33.9111L65.9963 36.8723H65.9805Z" fill="#8468F5" stroke="#8468F5" stroke-width="0.2" stroke-miterlimit="10" stroke-linecap="round"/>
<path d="M82.5873 21.7046C82.6979 21.7046 82.8401 21.7046 83.0139 21.7046C83.3457 21.7046 83.7565 21.7204 83.8671 21.7204C84.4675 21.7204 84.5939 21.6731 85.0521 21.5471L85.3207 21.4683C86.1107 21.2636 86.9007 20.9486 87.6591 20.6493L88.0383 20.5076L84.7993 9.8916H77.8315L74.3555 18.6175L79.4905 20.35L81.1653 14.9948L82.5873 21.6889V21.7046Z" fill="#8468F5" stroke="#8468F5" stroke-width="0.2" stroke-miterlimit="10"/>
<path d="M84.4824 28.5089L86.5048 34.7777C86.9314 36.1638 87.9426 36.8568 89.5226 36.8568H93.3146L90.1072 26.8394L84.4824 28.4932V28.5089Z" fill="#8468F5" stroke="#8468F5" stroke-width="0.2" stroke-miterlimit="10"/>
<path d="M89.4119 21.4683L88.0689 21.9566C85.9833 22.6654 83.6449 23.4687 81.3381 22.9332C81.1485 22.8859 80.7693 22.7599 80.4533 22.6496C80.3111 22.6024 80.2005 22.5709 80.1215 22.5394L74.3545 20.1768C74.3071 20.1453 70.6415 18.0347 67.5605 20.9958L75.7133 25.8628L75.5395 25.9573C75.5079 25.973 71.5579 28.2096 66.9601 29.0917H66.8969L63.3419 26.0518L60.8613 26.4928L64.1635 32.4938C64.1793 32.4938 64.2109 32.4938 64.2267 32.4938C65.1905 32.5883 67.7027 32.7301 70.5309 32.0213L94.2783 23.7522C94.4521 23.6892 94.5785 23.5632 94.6259 23.3899C94.6733 23.2167 94.6259 23.0277 94.5153 22.8859C93.6463 21.8621 92.1611 20.6021 89.4119 21.4526V21.4683Z" fill="url(#paint0_linear_55_37)"/>
<path d="M67.1816 36.8723H72.601L74.6866 32.2573L67.1816 36.8723Z" fill="#8468F5" stroke="#8468F5" stroke-width="0.2" stroke-miterlimit="10"/>
<path d="M93.3146 36.8724H87.1526L84.4824 28.5088" fill="#8468F5"/>
<path d="M93.3146 36.8724H87.1526L84.4824 28.5088" stroke="#8468F5" stroke-width="0.2" stroke-miterlimit="10"/>
<path d="M12.672 37.1088V9.8916H18.5971V22.2716L30.2101 9.8916H37.5254L27.0975 20.9643L37.7309 37.1088H30.6525L23.0053 25.0437L18.5813 29.0129V37.1088H12.6562H12.672Z" fill="#8468F5"/>
<path d="M41.5392 37.1088V9.8916H47.4642V32.0685H61.226V37.1088H41.5234H41.5392Z" fill="#8468F5"/>
<path d="M111.85 37.1088V9.8916H117.775V37.1088H111.85Z" fill="#8468F5"/>
<path d="M130.556 37.1088V14.8531H121.803V9.8916H145.329V14.8531H136.528V37.1088H130.556Z" fill="#8468F5"/>
<defs>
<linearGradient id="paint0_linear_55_37" x1="60.8613" y1="26.0045" x2="94.6417" y2="26.0045" gradientUnits="userSpaceOnUse">
<stop stop-color="#B1A9FA"/>
<stop offset="1" stop-color="#8468F5"/>
</linearGradient>
</defs>
</svg>
