<svg width="27" height="24" viewBox="0 0 27 24" fill="none" xmlns="http://www.w3.org/2000/svg">
<path d="M10.9887 0.212021C10.9887 0.329489 11.6749 1.7391 12.5136 3.30534C13.3523 4.87158 14.0385 6.24203 14.0385 6.3595C14.0385 6.75106 10.8362 8.23899 10.7218 7.92574C10.3788 6.82937 6.90964 1.34754 6.52842 1.19092C5.68973 0.916828 5.99471 2.28729 7.55771 5.69385C8.3964 7.53418 9.0826 9.10042 9.0826 9.17873C9.0826 9.25704 7.32898 10.5492 5.19414 11.998C3.02118 13.4859 0.924462 15.0913 0.54324 15.5611C-0.18108 16.3834 -0.18108 16.3834 0.54324 16.3834C0.962584 16.3834 3.32616 15.3262 5.76597 14.0341L10.2263 11.6847L11.2556 13.8383L12.323 16.031L10.9887 17.0882C7.7102 19.7117 5.27038 21.9436 5.27038 22.2568C5.27038 23.0399 6.49029 22.6092 9.84504 20.6514C11.7511 19.5159 13.3523 18.6936 13.4285 18.7719C13.5048 18.8502 14.1147 20.0249 14.8009 21.3562C16.9358 25.5459 18.0413 24.4887 16.1352 20.0641C15.6015 18.8502 15.1821 17.793 15.1821 17.7147C15.1821 17.5189 19.3756 14.8172 19.6806 14.8172C19.833 14.8563 20.4811 15.7569 21.0911 16.8924C22.1966 18.8502 23.569 19.79 23.569 18.6153C23.569 18.3021 23.0353 17.0491 22.3872 15.7961C21.7391 14.5822 21.2817 13.525 21.3579 13.4859C21.4342 13.4076 22.4253 12.6636 23.6071 11.763C26.0469 9.96185 27 9.02211 27 8.51308C27 7.76912 25.3226 8.19983 22.7303 9.60945L20.0618 11.0582L19.3375 10.1185C18.9181 9.57029 18.3463 8.6697 18.0413 8.08236C17.4695 7.06431 17.5076 6.986 19.1468 5.85048C20.0618 5.18483 20.9005 4.40171 21.0148 4.0493C21.3579 3.18787 19.4899 3.26619 17.9269 4.24508C16.2877 5.26314 15.7921 5.22398 14.9915 4.01015C13.4666 1.62164 10.9887 -0.72772 10.9887 0.212021ZM16.8976 10.001C17.4313 10.8233 17.8507 11.6847 17.8507 11.9588C17.8507 12.4287 14.8772 14.4256 14.191 14.4256C13.7335 14.4256 12.018 10.9016 12.2849 10.6275C12.8948 9.96185 15.0678 8.59139 15.449 8.55224C15.7158 8.55224 16.3639 9.21789 16.8976 10.001Z" fill="#8468F5"/>
</svg>
